<svg viewBox="0 0 762 665" fill="none" xmlns="http://www.w3.org/2000/svg">
<path d="M38.0906 398.807H114.292V631.726C114.292 640.551 118.306 649.014 125.451 655.254C132.596 661.494 142.287 665 152.392 665H609.598C619.703 665 629.394 661.494 636.54 655.254C643.685 649.014 647.699 640.551 647.699 631.726V398.807H723.9C731.263 398.813 738.47 396.951 744.645 393.448C750.82 389.946 755.698 384.953 758.686 379.075C761.695 373.201 762.684 366.69 761.534 360.334C760.384 353.978 757.145 348.051 752.209 343.273L409.304 10.5313C394.864 -3.51042 367.127 -3.51042 352.687 10.5313L9.78186 343.273C4.85512 348.053 1.62026 353.977 0.468709 360.33C-0.682845 366.682 0.29826 373.19 3.29331 379.065C6.28836 384.941 11.169 389.933 17.3446 393.436C23.5203 396.94 30.7262 398.805 38.0906 398.807ZM264.751 388.292C265.932 391.453 295.726 465.355 380.995 465.355C467.445 465.355 496.897 389.257 497.202 388.459L569.593 409.122C567.726 414.146 522.082 531.904 380.995 531.904C239.909 531.904 194.265 414.146 192.398 409.155L264.751 388.292Z" fill="#014EFF"/>
</svg>
